<?xml version="1.0" ?><svg style="enable-background:new 0 0 48 48;" version="1.1" viewBox="0 0 48 48" xml:space="preserve" xmlns="http://www.w3.org/2000/svg" xmlns:xlink="http://www.w3.org/1999/xlink"><g id="Padding__x26__Artboard"/><g id="Icons"><g><path d="M32.27567,25.04889l0.11987,0.76013l0.50183-0.07922    c0.13458-0.02118,0.24579-0.05078,0.33411-0.0885c0.08807-0.0376,0.15192-0.08838,0.19159-0.15198    c0.03949-0.0636,0.05157-0.14453,0.03607-0.24261c-0.01208-0.07648-0.04218-0.14117-0.09039-0.19342    c-0.0484-0.05219-0.10907-0.08746-0.18298-0.10559c-0.0697-0.0174-0.20062-0.01068-0.39313,0.01959L32.27567,25.04889z" style="fill:#303030;"/><path d="M20.06918,27.41302c-0.08875-0.13824-0.19971-0.23572-0.33301-0.29254    c-0.13361-0.05707-0.27881-0.073-0.43579-0.04816c-0.112,0.01758-0.2121,0.05499-0.30042,0.11206    c-0.0885,0.05713-0.1604,0.13135-0.21631,0.22241c-0.05579,0.09131-0.09369,0.2027-0.11371,0.33398    c-0.01971,0.13165-0.01721,0.27521,0.00739,0.43115c0.02472,0.15704,0.06689,0.29608,0.1264,0.41699    c0.05969,0.12067,0.13232,0.2171,0.21783,0.28949c0.08539,0.07196,0.17847,0.12146,0.27856,0.14838    c0.1001,0.02649,0.2063,0.03113,0.3183,0.01343c0.14343-0.02264,0.26953-0.0791,0.37811-0.16974    c0.1087-0.0907,0.18689-0.21637,0.2345-0.3772c0.0473-0.16095,0.05371-0.35077,0.01923-0.56946    C20.21835,27.72119,20.15817,27.5509,20.06918,27.41302z" style="fill:#303030;"/><path d="M22.08414,26.65643l-0.37726,0.05945l0.1333,0.84491l0.3772-0.05951    c0.13226-0.02087,0.24036-0.05219,0.32458-0.09357c0.08441-0.04169,0.14471-0.09772,0.18152-0.16791    c0.03638-0.07031,0.04657-0.15631,0.03058-0.25818c-0.01929-0.12183-0.07068-0.21564-0.15448-0.28113    C22.50613,26.63159,22.33444,26.61688,22.08414,26.65643z" style="fill:#303030;"/><path d="M21.38577,24.16559c0.1012,0.20483,0.22418,0.36853,0.36926,0.49091    c0.14502,0.1225,0.30255,0.20642,0.47253,0.25183c0.16998,0.04529,0.34991,0.05298,0.53967,0.02301    c0.24323-0.03833,0.45703-0.13434,0.64154-0.28802s0.31696-0.367,0.39746-0.63983c0.08044-0.27277,0.09143-0.59479,0.0329-0.96588    c-0.0542-0.34338-0.15656-0.6322-0.30719-0.86639c-0.15057-0.23419-0.33899-0.39948-0.56506-0.49609    c-0.2262-0.09662-0.47266-0.12378-0.7392-0.08179c-0.18982,0.02991-0.35962,0.09326-0.5094,0.19019    c-0.14984,0.0968-0.27203,0.22272-0.36676,0.3775c-0.09467,0.15491-0.15887,0.34369-0.19257,0.56647    c-0.03369,0.22284-0.02972,0.46655,0.01202,0.73096C21.21298,23.72504,21.28458,23.96082,21.38577,24.16559z" style="fill:#303030;"/><polygon points="29.80014,26.7345 30.62637,26.60419 30.02963,25.52863   " style="fill:#303030;"/><path d="M14.97232,21.74561c-1.28467,0.19495-2.2359,0.49561-2.93994,0.80676    c-0.06555,0.47736-0.104,0.98328-0.104,1.51697c0,6.72705,5.47266,12.19971,12.19971,12.19971    c6.72168,0,12.18994-5.47266,12.18994-12.19971s-5.46826-12.19971-12.18994-12.19971c-1.06616,0-2.11871,0.1427-3.13696,0.41205    c0.0069,0.51569,0.0542,1.14722,0.14624,1.97076c0.14355,1.2793-0.01172,2.53809-0.44922,3.64062    C19.81851,20.0874,17.19058,21.40918,14.97232,21.74561z M17.52457,28.45129c-0.15063,0.17273-0.39752,0.28601-0.74091,0.34009    l-0.51318,0.08105l0.12341,0.78265c0.0177,0.112,0.0047,0.20123-0.039,0.26709c-0.04364,0.06622-0.10571,0.10583-0.18622,0.11853    c-0.08429,0.01331-0.1568-0.00452-0.21729-0.05371c-0.06055-0.04919-0.09955-0.12891-0.117-0.23981l-0.33624-2.13147    c-0.01935-0.12323-0.00507-0.21564,0.04315-0.27734c0.04846-0.06177,0.13416-0.10229,0.25739-0.12177l0.71869-0.11328    c0.21252-0.03363,0.37848-0.04315,0.49811-0.02832c0.11816,0.01361,0.2243,0.05011,0.31818,0.11017    c0.09363,0.06012,0.17029,0.13922,0.22992,0.23834c0.05927,0.09888,0.09937,0.21436,0.12018,0.34637    C17.72818,28.05139,17.67526,28.27863,17.52457,28.45129z M18.03226,26.08313c-0.0166,0.09558-0.06061,0.18719-0.13208,0.27496    c-0.07141,0.08771-0.1806,0.14319-0.32782,0.16644c-0.1109,0.01746-0.20862,0.00824-0.29291-0.02753    c-0.08441-0.03589-0.15369-0.08783-0.20819-0.1557c-0.05438-0.06799-0.10101-0.14532-0.13989-0.23212    c-0.03882-0.08679-0.07867-0.17719-0.11981-0.2713l-1.22321-2.86951l0.51074,3.23773    c0.02826,0.17908,0.00946,0.31976-0.05646,0.422c-0.0658,0.10217-0.16486,0.1637-0.29706,0.18457    c-0.12799,0.0202-0.2395-0.00757-0.33453-0.08325c-0.09497-0.07581-0.1568-0.20435-0.18536-0.38562l-0.58533-3.71112    c-0.03229-0.20477-0.00079-0.35126,0.0946-0.43958c0.09534-0.0882,0.2337-0.14673,0.41498-0.17529l0.29431-0.04639    c0.177-0.02795,0.30811-0.03223,0.39313-0.01282c0.08496,0.01941,0.15332,0.06757,0.20477,0.14471    c0.05151,0.07715,0.11664,0.20569,0.19531,0.38568l1.08661,2.46149l0.27631-2.67651    c0.01941-0.19537,0.04181-0.33777,0.06702-0.427c0.02527-0.08917,0.07538-0.15619,0.15027-0.20081    c0.07501-0.04456,0.20099-0.08087,0.37799-0.10876l0.29431-0.04639c0.18127-0.02863,0.33093-0.01562,0.44879,0.03906    c0.11792,0.05463,0.19299,0.18433,0.22528,0.38904l0.58545,3.71118c0.02826,0.1792,0.00946,0.31982-0.0564,0.422    c-0.0658,0.10217-0.16602,0.16388-0.30029,0.18512c-0.12592,0.0199-0.23645-0.00861-0.33154-0.08545    c-0.09521-0.07678-0.15686-0.20477-0.18518-0.38385l-0.51068-3.23773l-0.28052,3.10669    C18.06644,25.83893,18.04886,25.98761,18.03226,26.08313z M20.63528,28.93011c-0.09552,0.14648-0.22211,0.26697-0.37994,0.36157    c-0.15765,0.0946-0.3454,0.15894-0.56299,0.19324c-0.21619,0.03406-0.41547,0.02966-0.59741-0.01324    c-0.18219-0.04279-0.34039-0.11865-0.47479-0.2276c-0.13458-0.10876-0.24506-0.24817-0.33167-0.4173    c-0.08655-0.16949-0.1463-0.35785-0.17902-0.56525c-0.03363-0.21271-0.03387-0.41241-0.00079-0.5993    c0.03308-0.18701,0.09747-0.35181,0.1936-0.49451c0.09601-0.14282,0.2218-0.26019,0.3775-0.35254    c0.1557-0.09198,0.33899-0.15479,0.55035-0.18817c0.28662-0.04523,0.54181-0.02588,0.76575,0.05792    c0.22418,0.08405,0.4057,0.22485,0.54541,0.42249c0.13934,0.19769,0.23187,0.44128,0.27747,0.73059    c0.03369,0.21381,0.03528,0.41248,0.005,0.5965S20.73074,28.78363,20.63528,28.93011z M23.16098,27.56232    c-0.1507,0.17267-0.39764,0.28589-0.74103,0.34009l-0.51318,0.08099l0.12347,0.78271c0.01764,0.112,0.0047,0.20117-0.039,0.26709    c-0.0437,0.06622-0.10577,0.10577-0.18628,0.11853c-0.08423,0.01324-0.15668-0.00464-0.21722-0.05383    c-0.06049-0.04919-0.09955-0.12878-0.11707-0.23969l-0.33618-2.13153c-0.01941-0.12317-0.005-0.21558,0.04315-0.27728    c0.0484-0.06177,0.13409-0.10242,0.25732-0.12177l0.71881-0.1134c0.21246-0.03351,0.37836-0.04303,0.49799-0.0282    c0.11829,0.01355,0.2243,0.05005,0.31818,0.11017c0.09363,0.06012,0.17035,0.13922,0.23004,0.23828    c0.05927,0.09894,0.09937,0.21442,0.12018,0.34644C23.36453,27.16241,23.31155,27.38959,23.16098,27.56232z M28.91208,27.91748    c-0.04132,0.04974-0.10779,0.08185-0.19952,0.09631l-1.35248,0.21332c-0.12189,0.01917-0.21381,0.0061-0.276-0.03949    c-0.06183-0.04572-0.10229-0.12903-0.12134-0.24982l-0.33588-2.12958c-0.01788-0.1131-0.00598-0.20215,0.03607-0.26672    c0.04205-0.06451,0.10443-0.10327,0.18762-0.11639c0.08429-0.01331,0.15692,0.00391,0.21771,0.0517    c0.0611,0.04773,0.10071,0.12872,0.11871,0.24298l0.3175,2.01294l1.1355-0.17914c0.09058-0.01428,0.16339-0.00336,0.21875,0.03302    c0.05554,0.03632,0.08832,0.08801,0.09882,0.1546C28.96829,27.8092,28.95316,27.86792,28.91208,27.91748z M31.59256,27.52563    c-0.04523,0.06207-0.10522,0.09888-0.18073,0.11078c-0.04419,0.00702-0.08307,0.00488-0.11694-0.00592    c-0.03406-0.0108-0.06372-0.02789-0.08936-0.05151c-0.02557-0.0235-0.05505-0.06146-0.08838-0.11359    c-0.03339-0.05219-0.06219-0.09821-0.08649-0.138l-0.18701-0.32629l-1.12427,0.17731l-0.07611,0.37543    c-0.0296,0.14648-0.0589,0.24677-0.08783,0.30078c-0.02881,0.05432-0.08472,0.08789-0.1676,0.10101    c-0.07037,0.01111-0.1369-0.00494-0.1991-0.04785c-0.06201-0.04315-0.09851-0.09729-0.10876-0.16266    c-0.00592-0.03778-0.00574-0.0777,0.00049-0.12c0.00616-0.04224,0.01819-0.1015,0.03558-0.17773l0.42438-1.90717    c0.01184-0.05493,0.02631-0.12061,0.04321-0.19733c0.01691-0.07666,0.03754-0.14148,0.06219-0.19452    c0.02454-0.0528,0.06055-0.09808,0.10809-0.13586c0.0473-0.03778,0.1095-0.06268,0.18634-0.07483    c0.07788-0.01227,0.1452-0.00787,0.20221,0.01355c0.05688,0.0213,0.10498,0.0528,0.14429,0.09418    c0.03937,0.04163,0.0744,0.0871,0.10468,0.13727c0.03064,0.0498,0.06982,0.11682,0.1178,0.20081l1.00391,1.67053    c0.078,0.12677,0.12183,0.22119,0.13159,0.28278C31.65475,27.40082,31.63748,27.46393,31.59256,27.52563z M33.48026,24.5108    c0.09271,0.02283,0.17773,0.06293,0.255,0.12018c0.07739,0.05743,0.1402,0.12842,0.18909,0.21283    c0.04883,0.08441,0.08124,0.17712,0.09698,0.27759c0.03265,0.2063,0.00024,0.38031-0.09656,0.52179    c-0.0968,0.14154-0.25952,0.25684-0.48761,0.34552c0.10748,0.03717,0.21472,0.10028,0.32159,0.18921    c0.10693,0.08856,0.20502,0.18567,0.29419,0.29077c0.0896,0.10522,0.16132,0.20129,0.21594,0.28894    c0.0542,0.08728,0.08429,0.14868,0.08984,0.1839c0.0058,0.0365-0.00024,0.0744-0.01776,0.11395    c-0.01782,0.03943-0.0451,0.07275-0.08209,0.09985c-0.03705,0.02716-0.08173,0.04486-0.13452,0.05316    c-0.06293,0.01001-0.1181,0.00342-0.16541-0.01917c-0.04749-0.02295-0.09027-0.05475-0.12799-0.09491    c-0.03809-0.04041-0.09052-0.10052-0.1571-0.18011l-0.28339-0.33807c-0.10223-0.12445-0.19061-0.21753-0.26538-0.27924    c-0.07483-0.06171-0.14703-0.10059-0.21655-0.1167c-0.06946-0.01611-0.15387-0.01617-0.25336-0.00049l-0.19623,0.03101    l0.14014,0.88831c0.01849,0.117,0.00616,0.20721-0.0365,0.27081c-0.04285,0.06329-0.10583,0.10168-0.18872,0.11469    c-0.08942,0.0141-0.16302-0.00403-0.22119-0.0542c-0.05811-0.0498-0.09613-0.13104-0.11371-0.24304l-0.33563-2.12769    c-0.01898-0.12061-0.00586-0.21216,0.03973-0.2749c0.04559-0.06268,0.12878-0.10339,0.24951-0.12238l0.91095-0.14374    c0.12592-0.0199,0.23425-0.03149,0.32513-0.03485C33.31967,24.48041,33.40366,24.48932,33.48026,24.5108z M29.30264,19.89368    c0.07104-0.08325,0.18433-0.13727,0.34003-0.16174l3.0202-0.47644c0.16418-0.02588,0.29199-0.00891,0.38336,0.05103    c0.09143,0.05988,0.14642,0.1485,0.16492,0.26581s-0.00708,0.21808-0.0769,0.30237    c-0.06976,0.08423-0.18567,0.1391-0.34778,0.16473l-1.03662,0.16345l0.53741,3.40723    c0.03101,0.19623,0.01019,0.34869-0.06232,0.4574c-0.07239,0.1087-0.17798,0.17401-0.31659,0.1958    c-0.14081,0.02222-0.263-0.00769-0.36658-0.08972c-0.1037-0.08197-0.17084-0.22009-0.20142-0.41406l-0.53748-3.40729    l-1.0365,0.16345c-0.16211,0.02563-0.28833,0.00891-0.37854-0.05011c-0.09009-0.05896-0.14447-0.14716-0.16296-0.26447    C29.20566,20.07953,29.23154,19.97711,29.30264,19.89368z M25.47025,20.94739c0.10913-0.22266,0.28851-0.40887,0.53815-0.55865    c0.24957-0.14972,0.55469-0.25305,0.9151-0.30994c0.28796-0.04541,0.54254-0.04889,0.76398-0.01062    c0.22131,0.03833,0.41058,0.10571,0.56799,0.20221c0.15729,0.0965,0.2782,0.20483,0.36267,0.32483    c0.08453,0.12,0.13654,0.24182,0.15601,0.3656c0.01782,0.11298-0.0061,0.22107-0.07178,0.3244    c-0.06567,0.10327-0.1582,0.16431-0.27771,0.18317c-0.1087,0.01715-0.19568,0.00305-0.2608-0.04248    c-0.06506-0.04547-0.14038-0.12488-0.22607-0.2381c-0.11322-0.16357-0.23743-0.28558-0.3725-0.36591    c-0.13501-0.08032-0.33484-0.09967-0.5993-0.05792c-0.2453,0.03864-0.43463,0.12372-0.56799,0.25513    c-0.13342,0.13153-0.18811,0.27289-0.16425,0.42432c0.01483,0.09387,0.05322,0.1709,0.11511,0.23108    c0.06201,0.06012,0.1416,0.10773,0.23889,0.14258c0.09735,0.03491,0.19403,0.05902,0.2901,0.07233    c0.09613,0.01331,0.25391,0.02991,0.47351,0.04993c0.27423,0.02008,0.52441,0.0506,0.75049,0.09149    c0.2262,0.04077,0.42285,0.10266,0.59003,0.18561c0.16718,0.08289,0.30579,0.1994,0.41577,0.34918    c0.11005,0.1499,0.18365,0.3432,0.22101,0.58002c0.04474,0.28357,0.0119,0.54999-0.09857,0.79919    c-0.11041,0.24908-0.29633,0.45978-0.55774,0.6322c-0.26129,0.17236-0.58496,0.289-0.97107,0.34985    c-0.46283,0.073-0.8584,0.04584-1.18671-0.08167c-0.23309-0.09222-0.43292-0.23279-0.59937-0.42194    c-0.16644-0.18896-0.26532-0.38269-0.29663-0.58105c-0.01813-0.11523,0.00629-0.22009,0.0733-0.31482    c0.06708-0.09479,0.16241-0.15192,0.28607-0.17139c0.10034-0.01581,0.19012,0.00281,0.26953,0.05591    c0.07941,0.05298,0.15356,0.13855,0.22247,0.25665c0.08331,0.13995,0.16754,0.25452,0.25262,0.34381    s0.19568,0.15649,0.33179,0.20172c0.13611,0.04529,0.30664,0.0517,0.51129,0.01941c0.28162-0.04443,0.5-0.14612,0.65521-0.30499    c0.15533-0.15894,0.21753-0.33655,0.18652-0.53271c-0.02454-0.1557-0.09192-0.2746-0.20221-0.35669    c-0.11023-0.08203-0.24451-0.13684-0.40289-0.16431c-0.15851-0.02753-0.3681-0.05011-0.62878-0.06799    c-0.34955-0.02582-0.64612-0.07355-0.88995-0.14331c-0.24377-0.0697-0.44666-0.1853-0.60876-0.34662    c-0.16211-0.16138-0.26453-0.3775-0.30719-0.64832C25.32687,21.41052,25.36105,21.1701,25.47025,20.94739z M25.63626,27.91241    c0.0722-0.13092,0.08978-0.31421,0.05249-0.55072l-0.21631-1.3714c-0.01807-0.11438-0.00641-0.20337,0.0351-0.26727    c0.04132-0.0639,0.10431-0.1026,0.1886-0.11591c0.08423-0.01331,0.15692,0.00397,0.21771,0.05182    c0.0611,0.04767,0.10071,0.1286,0.11871,0.24298l0.20978,1.32977c0.03412,0.21649,0.0415,0.40033,0.02222,0.55151    c-0.01941,0.15112-0.07867,0.29083-0.17847,0.41858c-0.08624,0.10901-0.1922,0.19543-0.31885,0.25903    c-0.12646,0.06396-0.27905,0.10986-0.4577,0.13806c-0.21246,0.03351-0.39899,0.03943-0.55975,0.01782    c-0.16064-0.02167-0.29681-0.07312-0.40912-0.15411c-0.11188-0.08099-0.20233-0.19299-0.2713-0.33618    c-0.06903-0.14288-0.12-0.31897-0.15289-0.52777l-0.20984-1.32983c-0.01776-0.1131-0.00555-0.20221,0.03644-0.26666    c0.04199-0.06464,0.10437-0.10345,0.18738-0.11652c0.08691-0.01373,0.1601,0.00366,0.21991,0.05219    c0.05988,0.04852,0.09888,0.12952,0.1167,0.24261l0.2146,1.36017c0.02441,0.1546,0.06183,0.28101,0.11279,0.37952    c0.05109,0.09821,0.12512,0.16913,0.22211,0.21228c0.09698,0.0434,0.22461,0.05255,0.3833,0.02753    C25.41849,28.12543,25.56418,28.04279,25.63626,27.91241z M21.17526,21.15759c0.26392-0.15637,0.57501-0.26276,0.93329-0.31927    c0.48633-0.07672,0.91943-0.04388,1.29919,0.09827c0.37982,0.14233,0.68799,0.38123,0.9245,0.71661    c0.23663,0.33539,0.39349,0.74829,0.47095,1.23889c0.05719,0.36261,0.06006,0.69983,0.00867,1.01184    c-0.05127,0.31189-0.1579,0.5921-0.31989,0.84058c-0.16193,0.24847-0.37659,0.45288-0.64429,0.61322    c-0.26764,0.16016-0.58594,0.26947-0.9549,0.3277c-0.36694,0.0578-0.70465,0.05035-1.01343-0.02222    c-0.30872-0.07263-0.57709-0.20129-0.80518-0.38611c-0.22815-0.18481-0.41565-0.42078-0.5625-0.70807    c-0.14703-0.28723-0.24823-0.60681-0.30371-0.95874c-0.05695-0.36041-0.05731-0.69916-0.00134-1.01617    c0.05603-0.31714,0.16553-0.59662,0.32843-0.83881C20.69797,21.51318,20.91135,21.31403,21.17526,21.15759z" style="fill:#303030;"/><path d="M16.44778,27.54541l-0.3772,0.05951l0.13318,0.84491l0.37732-0.05951    c0.1322-0.02094,0.24036-0.05212,0.32458-0.09363c0.08441-0.04169,0.14471-0.09766,0.1814-0.16791    c0.0365-0.07025,0.04669-0.15625,0.03058-0.25818c-0.01917-0.12183-0.07056-0.21558-0.15436-0.28113    C16.86984,27.52063,16.69815,27.50592,16.44778,27.54541z" style="fill:#303030;"/></g><path d="M24.08124,9.77734L23.716,9.78223c-0.81628,0.01709-1.47473,0.25171-1.96503,0.50507   c-0.4212,0.24121-0.65094,0.5932-0.72949,1.26556c1.01141-0.24945,2.05273-0.38342,3.10663-0.38342   c7.28275,0,13.17463,6.07615,12.87951,13.42866c-0.2661,6.62924-5.75173,12.11084-12.38156,12.3617   c-7.33866,0.27768-13.39785-5.61238-13.39785-12.89046c0-0.39209,0.02289-0.76801,0.05658-1.1347   c-0.13547,0.08107-0.25522,0.1601-0.36058,0.23529c-0.42509,0.3034-0.76029,0.72822-0.90196,1.23089   c-0.269,0.95449-0.06762,1.87204-0.06456,1.88532c1.11397,7.07257,7.14912,12.16951,14.31566,12.07687   c7.40585-0.09573,13.65447-6.06246,14.07741-13.45685C38.82313,16.6476,32.23929,9.77734,24.08124,9.77734z" style="fill:#303030;"/><path d="M11.763,21.90356c0.32146-0.1906,1.76929-0.64764,3.10437-0.85034   c2.02051-0.30615,4.40283-1.48193,5.17041-3.41797c0.40039-1.01074,0.53662-2.12256,0.4043-3.30469   c-0.13214-1.18164-0.19592-2.08911-0.11963-2.80762c0,0,0.10266-1.31555,1.10498-1.85748   c-0.70801,0.36737-1.1167,0.77789-1.15381,0.81793L10.17108,22.73633c-0.1969,0.20032-0.34955,0.41638-0.4787,0.638   c-0.01959,0.02783-0.03381,0.04926-0.03741,0.05536c-0.01575,0.02612-0.02136,0.05457-0.0296,0.08246   C10.6665,22.3772,11.44154,22.09416,11.763,21.90356z" style="fill:#303030;"/><path d="M21.47235,9.63574c-0.01678,0.00842-0.02863,0.02087-0.04492,0.02972   c0.00287-0.00146,0.00482-0.00305,0.00769-0.00452C21.44891,9.65326,21.45825,9.64325,21.47235,9.63574z" style="fill:#303030;"/></g></svg>